<?xml version="1.0" standalone="no"?>
<!DOCTYPE svg PUBLIC "-//W3C//DTD SVG 20010904//EN"
 "http://www.w3.org/TR/2001/REC-SVG-20010904/DTD/svg10.dtd">
<svg version="1.0" xmlns="http://www.w3.org/2000/svg"
 width="390.000000pt" height="390.000000pt" viewBox="0 0 390.000000 390.000000"
 preserveAspectRatio="xMidYMid meet">
<metadata>
Created by potrace 1.11, written by Peter Selinger 2001-2013
</metadata>
<g transform="translate(0.000000,390.000000) scale(0.100000,-0.100000)"
fill="#000000" stroke="none">
<path d="M1839 3776 c-2 -2 -33 -7 -69 -10 -233 -22 -490 -96 -705 -203 -383
-190 -699 -501 -868 -853 -85 -179 -117 -268 -153 -435 -30 -137 -41 -258 -39
-430 3 -202 9 -255 49 -444 38 -176 131 -387 243 -551 83 -120 268 -305 388
-387 274 -186 566 -287 950 -330 136 -15 531 -8 645 11 14 3 43 7 65 11 103
14 252 51 371 90 523 172 900 509 1075 964 132 344 142 795 24 1146 -32 97
-136 329 -154 345 -3 3 -15 22 -25 42 -10 21 -22 36 -26 33 -4 -2 -7 1 -7 8 0
16 -107 178 -144 218 -16 17 -29 33 -29 36 0 5 -15 24 -108 130 -25 29 -50 49
-55 46 -6 -3 -7 -2 -4 4 11 18 -168 180 -319 288 -168 120 -381 205 -629 251
-80 15 -465 31 -476 20z m1046 -1115 c33 -13 67 -24 75 -26 8 -2 16 -4 18 -4
1 -1 3 0 5 1 1 1 28 -15 61 -36 57 -37 120 -95 111 -105 -3 -2 -1 -9 4 -15 31
-39 45 -160 29 -250 -9 -49 -30 -80 -92 -134 -10 -9 -26 -24 -35 -32 -9 -8
-31 -24 -49 -36 l-33 -21 86 -23 c49 -13 91 -31 98 -41 7 -9 31 -27 54 -38 50
-26 86 -79 101 -146 6 -27 15 -63 18 -80 10 -43 12 -128 4 -140 -4 -5 -11 -25
-15 -42 -11 -55 -122 -163 -211 -209 -43 -21 -80 -39 -83 -39 -11 -1 -102 -16
-124 -21 -12 -2 -42 -6 -67 -9 -25 -3 -58 -7 -75 -10 -28 -5 -90 -5 -515 -1
-108 1 -193 7 -223 15 -39 11 -50 11 -65 0 -9 -7 -14 -9 -9 -4 4 4 -1 17 -10
28 -17 18 -17 19 2 30 27 15 36 15 66 1 15 -7 29 -11 32 -8 3 3 20 1 39 -4 19
-5 43 -5 56 -1 21 8 23 14 23 96 -1 49 1 352 3 674 l4 586 -41 -7 c-41 -6
-102 1 -114 14 -3 3 0 12 6 20 9 11 33 15 89 14 42 -1 109 2 147 7 131 15 260
21 415 20 134 -2 163 -5 215 -24z m-1393 -32 c118 -43 156 -66 225 -131 61
-59 106 -134 133 -222 27 -85 -8 -183 -86 -242 -45 -35 -118 -38 -179 -9 -54
27 -89 96 -74 148 12 44 49 70 94 64 48 -7 57 -14 44 -39 -7 -13 -17 -18 -31
-15 -11 3 -26 3 -34 0 -20 -8 -17 -64 6 -93 16 -22 27 -25 79 -25 67 0 90 15
122 77 27 53 24 94 -15 182 -52 120 -150 207 -301 267 -84 33 -244 31 -310 -5
-71 -38 -92 -56 -139 -115 -77 -98 -108 -177 -132 -331 -7 -46 -7 -238 0 -275
2 -11 7 -54 11 -95 11 -129 15 -153 31 -230 17 -85 45 -156 86 -216 24 -37 35
-43 95 -59 95 -24 137 -30 223 -30 110 0 178 19 230 65 14 12 34 30 45 39 12
9 32 34 45 56 13 22 27 42 31 45 9 7 46 98 53 133 7 30 22 34 51 13 17 -13 17
-17 -21 -97 -21 -46 -47 -93 -56 -103 -10 -11 -18 -25 -18 -30 -1 -24 -99
-105 -165 -136 -60 -28 -83 -33 -155 -35 -87 -2 -285 23 -330 42 -14 6 -40 14
-59 18 -29 6 -84 36 -118 65 -7 5 -17 10 -22 10 -12 0 -90 77 -134 131 -33 42
-74 125 -82 168 -3 17 -12 61 -21 97 -16 69 -22 207 -11 259 4 17 9 45 12 63
14 87 58 177 157 323 90 132 149 183 303 258 76 37 86 39 224 39 100 0 123 -4
193 -29z m-1152 -1003 c0 -2 -8 -10 -17 -17 -16 -13 -17 -12 -4 4 13 16 21 21
21 13z m600 -802 c0 -8 -19 -13 -24 -6 -3 5 1 9 9 9 8 0 15 -2 15 -3z"/>
<path d="M2628 2645 c-1 -2 -43 -5 -91 -8 -48 -3 -90 -6 -92 -8 -11 -11 -46
-324 -51 -460 -7 -156 -1 -173 58 -160 18 4 69 6 113 4 44 -2 94 2 111 7 17 6
42 13 55 15 35 7 99 37 99 47 0 4 6 8 13 8 17 0 74 55 103 101 58 92 47 280
-21 343 -38 35 -80 63 -95 64 -8 1 -40 10 -70 20 -54 19 -125 34 -132 27z"/>
<path d="M2408 1887 c6 -85 7 -262 2 -427 -2 -52 -2 -120 -1 -151 l1 -55 170
-1 c94 0 173 4 176 8 2 4 10 6 17 3 19 -7 114 30 162 64 38 27 92 100 99 134
2 7 6 21 11 31 7 17 1 213 -9 275 -3 18 -15 46 -26 62 -30 42 -105 97 -143
105 -18 4 -38 12 -45 18 -8 6 -41 10 -75 8 -182 -7 -314 -7 -329 1 -15 7 -16
0 -10 -75z"/>
</g>
</svg>
